<?xml version="1.0" encoding="utf-8"?>
<!-- Generator: Adobe Illustrator 19.0.0, SVG Export Plug-In . SVG Version: 6.00 Build 0)  -->
<svg version="1.1" id="Capa_1" focusable="false" xmlns="http://www.w3.org/2000/svg" xmlns:xlink="http://www.w3.org/1999/xlink"
	 x="0px" y="0px" viewBox="418.1 -106 15.8 14" style="enable-background:new 418.1 -106 15.8 14;" xml:space="preserve">
<style type="text/css">
	.st0{fill:#FFFFFF;}
</style>
<path class="st0" d="M433.5-106h-2.2c-0.3,0-0.4,0.4-0.2,0.6l0.5,0.5l-1.3,1.3c-0.6-0.4-1.3-0.6-2.1-0.6c-0.9,0-1.8,0.3-2.4,0.8
	c0.4,0.5,0.7,1,0.9,1.6c0.4-0.4,0.9-0.7,1.6-0.7c1.2,0,2.2,1,2.2,2.2s-1,2.2-2.2,2.2c-0.6,0-1.2-0.3-1.6-0.7
	c-0.2,0.6-0.5,1.1-0.9,1.6c0.7,0.5,1.5,0.8,2.4,0.8c2.2,0,3.9-1.8,3.9-3.9c0-0.8-0.2-1.5-0.6-2.1l1.3-1.3l0.5,0.5
	c0.1,0.1,0.1,0.1,0.2,0.1c0.2,0,0.3-0.1,0.3-0.3v-2.2C433.9-105.9,433.7-106,433.5-106z M422.1-104.3c-2.2,0-3.9,1.8-3.9,3.9
	c0,1.9,1.3,3.4,3.1,3.8v1.4h-1c-0.2,0-0.3,0.1-0.3,0.3v1.1c0,0.2,0.1,0.3,0.3,0.3h1v1c0,0.2,0.1,0.3,0.3,0.3h1.1
	c0.2,0,0.3-0.1,0.3-0.3v-1h1c0.2,0,0.3-0.1,0.3-0.3v-1.1c0-0.2-0.1-0.3-0.3-0.3h-1v-1.4c1.8-0.4,3.1-2,3.1-3.8
	C426-102.5,424.2-104.3,422.1-104.3z M422.1-98.1c-1.2,0-2.2-1-2.2-2.2s1-2.2,2.2-2.2s2.2,1,2.2,2.2S423.3-98.1,422.1-98.1z"/>
</svg>
